<svg xmlns="http://www.w3.org/2000/svg" xml:space="preserve" xmlns:xlink="http://www.w3.org/1999/xlink" style="max-width: 100%;height: auto;" width="990" height="990" viewBox="0 0 990 990">
<rect width="990" height="990" fill="#ffffff" x="0" y="0"></rect>
<g fill="#000000">
<g transform="translate(220,44) scale(3.7766666666667)"><circle cx="3" cy="3" r="3"></circle></g>
<g transform="translate(330,44) scale(3.7766666666667)"><circle cx="3" cy="3" r="3"></circle></g>
<g transform="translate(418,44) scale(3.7766666666667)"><circle cx="3" cy="3" r="3"></circle></g>
<g transform="translate(462,44) scale(3.7766666666667)"><circle cx="3" cy="3" r="3"></circle></g>
<g transform="translate(506,44) scale(3.7766666666667)"><circle cx="3" cy="3" r="3"></circle></g>
<g transform="translate(594,44) scale(3.7766666666667)"><circle cx="3" cy="3" r="3"></circle></g>
<g transform="translate(616,44) scale(3.7766666666667)"><circle cx="3" cy="3" r="3"></circle></g>
<g transform="translate(660,44) scale(3.7766666666667)"><circle cx="3" cy="3" r="3"></circle></g>
<g transform="translate(704,44) scale(3.7766666666667)"><circle cx="3" cy="3" r="3"></circle></g>
<g transform="translate(726,44) scale(3.7766666666667)"><circle cx="3" cy="3" r="3"></circle></g>
<g transform="translate(748,44) scale(3.7766666666667)"><circle cx="3" cy="3" r="3"></circle></g>
<g transform="translate(220,66) scale(3.7766666666667)"><circle cx="3" cy="3" r="3"></circle></g>
<g transform="translate(242,66) scale(3.7766666666667)"><circle cx="3" cy="3" r="3"></circle></g>
<g transform="translate(264,66) scale(3.7766666666667)"><circle cx="3" cy="3" r="3"></circle></g>
<g transform="translate(308,66) scale(3.7766666666667)"><circle cx="3" cy="3" r="3"></circle></g>
<g transform="translate(396,66) scale(3.7766666666667)"><circle cx="3" cy="3" r="3"></circle></g>
<g transform="translate(418,66) scale(3.7766666666667)"><circle cx="3" cy="3" r="3"></circle></g>
<g transform="translate(440,66) scale(3.7766666666667)"><circle cx="3" cy="3" r="3"></circle></g>
<g transform="translate(528,66) scale(3.7766666666667)"><circle cx="3" cy="3" r="3"></circle></g>
<g transform="translate(550,66) scale(3.7766666666667)"><circle cx="3" cy="3" r="3"></circle></g>
<g transform="translate(594,66) scale(3.7766666666667)"><circle cx="3" cy="3" r="3"></circle></g>
<g transform="translate(616,66) scale(3.7766666666667)"><circle cx="3" cy="3" r="3"></circle></g>
<g transform="translate(638,66) scale(3.7766666666667)"><circle cx="3" cy="3" r="3"></circle></g>
<g transform="translate(660,66) scale(3.7766666666667)"><circle cx="3" cy="3" r="3"></circle></g>
<g transform="translate(682,66) scale(3.7766666666667)"><circle cx="3" cy="3" r="3"></circle></g>
<g transform="translate(704,66) scale(3.7766666666667)"><circle cx="3" cy="3" r="3"></circle></g>
<g transform="translate(748,66) scale(3.7766666666667)"><circle cx="3" cy="3" r="3"></circle></g>
<g transform="translate(220,88) scale(3.7766666666667)"><circle cx="3" cy="3" r="3"></circle></g>
<g transform="translate(286,88) scale(3.7766666666667)"><circle cx="3" cy="3" r="3"></circle></g>
<g transform="translate(330,88) scale(3.7766666666667)"><circle cx="3" cy="3" r="3"></circle></g>
<g transform="translate(352,88) scale(3.7766666666667)"><circle cx="3" cy="3" r="3"></circle></g>
<g transform="translate(374,88) scale(3.7766666666667)"><circle cx="3" cy="3" r="3"></circle></g>
<g transform="translate(418,88) scale(3.7766666666667)"><circle cx="3" cy="3" r="3"></circle></g>
<g transform="translate(440,88) scale(3.7766666666667)"><circle cx="3" cy="3" r="3"></circle></g>
<g transform="translate(462,88) scale(3.7766666666667)"><circle cx="3" cy="3" r="3"></circle></g>
<g transform="translate(484,88) scale(3.7766666666667)"><circle cx="3" cy="3" r="3"></circle></g>
<g transform="translate(572,88) scale(3.7766666666667)"><circle cx="3" cy="3" r="3"></circle></g>
<g transform="translate(594,88) scale(3.7766666666667)"><circle cx="3" cy="3" r="3"></circle></g>
<g transform="translate(638,88) scale(3.7766666666667)"><circle cx="3" cy="3" r="3"></circle></g>
<g transform="translate(660,88) scale(3.7766666666667)"><circle cx="3" cy="3" r="3"></circle></g>
<g transform="translate(726,88) scale(3.7766666666667)"><circle cx="3" cy="3" r="3"></circle></g>
<g transform="translate(748,88) scale(3.7766666666667)"><circle cx="3" cy="3" r="3"></circle></g>
<g transform="translate(308,110) scale(3.7766666666667)"><circle cx="3" cy="3" r="3"></circle></g>
<g transform="translate(352,110) scale(3.7766666666667)"><circle cx="3" cy="3" r="3"></circle></g>
<g transform="translate(374,110) scale(3.7766666666667)"><circle cx="3" cy="3" r="3"></circle></g>
<g transform="translate(396,110) scale(3.7766666666667)"><circle cx="3" cy="3" r="3"></circle></g>
<g transform="translate(440,110) scale(3.7766666666667)"><circle cx="3" cy="3" r="3"></circle></g>
<g transform="translate(462,110) scale(3.7766666666667)"><circle cx="3" cy="3" r="3"></circle></g>
<g transform="translate(506,110) scale(3.7766666666667)"><circle cx="3" cy="3" r="3"></circle></g>
<g transform="translate(550,110) scale(3.7766666666667)"><circle cx="3" cy="3" r="3"></circle></g>
<g transform="translate(616,110) scale(3.7766666666667)"><circle cx="3" cy="3" r="3"></circle></g>
<g transform="translate(660,110) scale(3.7766666666667)"><circle cx="3" cy="3" r="3"></circle></g>
<g transform="translate(704,110) scale(3.7766666666667)"><circle cx="3" cy="3" r="3"></circle></g>
<g transform="translate(242,132) scale(3.7766666666667)"><circle cx="3" cy="3" r="3"></circle></g>
<g transform="translate(264,132) scale(3.7766666666667)"><circle cx="3" cy="3" r="3"></circle></g>
<g transform="translate(330,132) scale(3.7766666666667)"><circle cx="3" cy="3" r="3"></circle></g>
<g transform="translate(352,132) scale(3.7766666666667)"><circle cx="3" cy="3" r="3"></circle></g>
<g transform="translate(418,132) scale(3.7766666666667)"><circle cx="3" cy="3" r="3"></circle></g>
<g transform="translate(462,132) scale(3.7766666666667)"><circle cx="3" cy="3" r="3"></circle></g>
<g transform="translate(484,132) scale(3.7766666666667)"><circle cx="3" cy="3" r="3"></circle></g>
<g transform="translate(506,132) scale(3.7766666666667)"><circle cx="3" cy="3" r="3"></circle></g>
<g transform="translate(550,132) scale(3.7766666666667)"><circle cx="3" cy="3" r="3"></circle></g>
<g transform="translate(594,132) scale(3.7766666666667)"><circle cx="3" cy="3" r="3"></circle></g>
<g transform="translate(660,132) scale(3.7766666666667)"><circle cx="3" cy="3" r="3"></circle></g>
<g transform="translate(704,132) scale(3.7766666666667)"><circle cx="3" cy="3" r="3"></circle></g>
<g transform="translate(726,132) scale(3.7766666666667)"><circle cx="3" cy="3" r="3"></circle></g>
<g transform="translate(748,132) scale(3.7766666666667)"><circle cx="3" cy="3" r="3"></circle></g>
<g transform="translate(220,154) scale(3.7766666666667)"><circle cx="3" cy="3" r="3"></circle></g>
<g transform="translate(330,154) scale(3.7766666666667)"><circle cx="3" cy="3" r="3"></circle></g>
<g transform="translate(352,154) scale(3.7766666666667)"><circle cx="3" cy="3" r="3"></circle></g>
<g transform="translate(374,154) scale(3.7766666666667)"><circle cx="3" cy="3" r="3"></circle></g>
<g transform="translate(418,154) scale(3.7766666666667)"><circle cx="3" cy="3" r="3"></circle></g>
<g transform="translate(484,154) scale(3.7766666666667)"><circle cx="3" cy="3" r="3"></circle></g>
<g transform="translate(506,154) scale(3.7766666666667)"><circle cx="3" cy="3" r="3"></circle></g>
<g transform="translate(550,154) scale(3.7766666666667)"><circle cx="3" cy="3" r="3"></circle></g>
<g transform="translate(572,154) scale(3.7766666666667)"><circle cx="3" cy="3" r="3"></circle></g>
<g transform="translate(638,154) scale(3.7766666666667)"><circle cx="3" cy="3" r="3"></circle></g>
<g transform="translate(660,154) scale(3.7766666666667)"><circle cx="3" cy="3" r="3"></circle></g>
<g transform="translate(682,154) scale(3.7766666666667)"><circle cx="3" cy="3" r="3"></circle></g>
<g transform="translate(748,154) scale(3.7766666666667)"><circle cx="3" cy="3" r="3"></circle></g>
<g transform="translate(220,176) scale(3.7766666666667)"><circle cx="3" cy="3" r="3"></circle></g>
<g transform="translate(264,176) scale(3.7766666666667)"><circle cx="3" cy="3" r="3"></circle></g>
<g transform="translate(308,176) scale(3.7766666666667)"><circle cx="3" cy="3" r="3"></circle></g>
<g transform="translate(352,176) scale(3.7766666666667)"><circle cx="3" cy="3" r="3"></circle></g>
<g transform="translate(396,176) scale(3.7766666666667)"><circle cx="3" cy="3" r="3"></circle></g>
<g transform="translate(440,176) scale(3.7766666666667)"><circle cx="3" cy="3" r="3"></circle></g>
<g transform="translate(484,176) scale(3.7766666666667)"><circle cx="3" cy="3" r="3"></circle></g>
<g transform="translate(528,176) scale(3.7766666666667)"><circle cx="3" cy="3" r="3"></circle></g>
<g transform="translate(572,176) scale(3.7766666666667)"><circle cx="3" cy="3" r="3"></circle></g>
<g transform="translate(616,176) scale(3.7766666666667)"><circle cx="3" cy="3" r="3"></circle></g>
<g transform="translate(660,176) scale(3.7766666666667)"><circle cx="3" cy="3" r="3"></circle></g>
<g transform="translate(704,176) scale(3.7766666666667)"><circle cx="3" cy="3" r="3"></circle></g>
<g transform="translate(748,176) scale(3.7766666666667)"><circle cx="3" cy="3" r="3"></circle></g>
<g transform="translate(220,198) scale(3.7766666666667)"><circle cx="3" cy="3" r="3"></circle></g>
<g transform="translate(286,198) scale(3.7766666666667)"><circle cx="3" cy="3" r="3"></circle></g>
<g transform="translate(308,198) scale(3.7766666666667)"><circle cx="3" cy="3" r="3"></circle></g>
<g transform="translate(330,198) scale(3.7766666666667)"><circle cx="3" cy="3" r="3"></circle></g>
<g transform="translate(374,198) scale(3.7766666666667)"><circle cx="3" cy="3" r="3"></circle></g>
<g transform="translate(396,198) scale(3.7766666666667)"><circle cx="3" cy="3" r="3"></circle></g>
<g transform="translate(440,198) scale(3.7766666666667)"><circle cx="3" cy="3" r="3"></circle></g>
<g transform="translate(462,198) scale(3.7766666666667)"><circle cx="3" cy="3" r="3"></circle></g>
<g transform="translate(484,198) scale(3.7766666666667)"><circle cx="3" cy="3" r="3"></circle></g>
<g transform="translate(506,198) scale(3.7766666666667)"><circle cx="3" cy="3" r="3"></circle></g>
<g transform="translate(572,198) scale(3.7766666666667)"><circle cx="3" cy="3" r="3"></circle></g>
<g transform="translate(594,198) scale(3.7766666666667)"><circle cx="3" cy="3" r="3"></circle></g>
<g transform="translate(638,198) scale(3.7766666666667)"><circle cx="3" cy="3" r="3"></circle></g>
<g transform="translate(748,198) scale(3.7766666666667)"><circle cx="3" cy="3" r="3"></circle></g>
<g transform="translate(88,220) scale(3.7766666666667)"><circle cx="3" cy="3" r="3"></circle></g>
<g transform="translate(110,220) scale(3.7766666666667)"><circle cx="3" cy="3" r="3"></circle></g>
<g transform="translate(132,220) scale(3.7766666666667)"><circle cx="3" cy="3" r="3"></circle></g>
<g transform="translate(176,220) scale(3.7766666666667)"><circle cx="3" cy="3" r="3"></circle></g>
<g transform="translate(220,220) scale(3.7766666666667)"><circle cx="3" cy="3" r="3"></circle></g>
<g transform="translate(264,220) scale(3.7766666666667)"><circle cx="3" cy="3" r="3"></circle></g>
<g transform="translate(308,220) scale(3.7766666666667)"><circle cx="3" cy="3" r="3"></circle></g>
<g transform="translate(330,220) scale(3.7766666666667)"><circle cx="3" cy="3" r="3"></circle></g>
<g transform="translate(374,220) scale(3.7766666666667)"><circle cx="3" cy="3" r="3"></circle></g>
<g transform="translate(396,220) scale(3.7766666666667)"><circle cx="3" cy="3" r="3"></circle></g>
<g transform="translate(462,220) scale(3.7766666666667)"><circle cx="3" cy="3" r="3"></circle></g>
<g transform="translate(506,220) scale(3.7766666666667)"><circle cx="3" cy="3" r="3"></circle></g>
<g transform="translate(528,220) scale(3.7766666666667)"><circle cx="3" cy="3" r="3"></circle></g>
<g transform="translate(550,220) scale(3.7766666666667)"><circle cx="3" cy="3" r="3"></circle></g>
<g transform="translate(616,220) scale(3.7766666666667)"><circle cx="3" cy="3" r="3"></circle></g>
<g transform="translate(682,220) scale(3.7766666666667)"><circle cx="3" cy="3" r="3"></circle></g>
<g transform="translate(770,220) scale(3.7766666666667)"><circle cx="3" cy="3" r="3"></circle></g>
<g transform="translate(792,220) scale(3.7766666666667)"><circle cx="3" cy="3" r="3"></circle></g>
<g transform="translate(814,220) scale(3.7766666666667)"><circle cx="3" cy="3" r="3"></circle></g>
<g transform="translate(880,220) scale(3.7766666666667)"><circle cx="3" cy="3" r="3"></circle></g>
<g transform="translate(902,220) scale(3.7766666666667)"><circle cx="3" cy="3" r="3"></circle></g>
<g transform="translate(924,220) scale(3.7766666666667)"><circle cx="3" cy="3" r="3"></circle></g>
<g transform="translate(44,242) scale(3.7766666666667)"><circle cx="3" cy="3" r="3"></circle></g>
<g transform="translate(66,242) scale(3.7766666666667)"><circle cx="3" cy="3" r="3"></circle></g>
<g transform="translate(88,242) scale(3.7766666666667)"><circle cx="3" cy="3" r="3"></circle></g>
<g transform="translate(110,242) scale(3.7766666666667)"><circle cx="3" cy="3" r="3"></circle></g>
<g transform="translate(154,242) scale(3.7766666666667)"><circle cx="3" cy="3" r="3"></circle></g>
<g transform="translate(308,242) scale(3.7766666666667)"><circle cx="3" cy="3" r="3"></circle></g>
<g transform="translate(352,242) scale(3.7766666666667)"><circle cx="3" cy="3" r="3"></circle></g>
<g transform="translate(418,242) scale(3.7766666666667)"><circle cx="3" cy="3" r="3"></circle></g>
<g transform="translate(440,242) scale(3.7766666666667)"><circle cx="3" cy="3" r="3"></circle></g>
<g transform="translate(484,242) scale(3.7766666666667)"><circle cx="3" cy="3" r="3"></circle></g>
<g transform="translate(506,242) scale(3.7766666666667)"><circle cx="3" cy="3" r="3"></circle></g>
<g transform="translate(550,242) scale(3.7766666666667)"><circle cx="3" cy="3" r="3"></circle></g>
<g transform="translate(572,242) scale(3.7766666666667)"><circle cx="3" cy="3" r="3"></circle></g>
<g transform="translate(594,242) scale(3.7766666666667)"><circle cx="3" cy="3" r="3"></circle></g>
<g transform="translate(660,242) scale(3.7766666666667)"><circle cx="3" cy="3" r="3"></circle></g>
<g transform="translate(704,242) scale(3.7766666666667)"><circle cx="3" cy="3" r="3"></circle></g>
<g transform="translate(726,242) scale(3.7766666666667)"><circle cx="3" cy="3" r="3"></circle></g>
<g transform="translate(748,242) scale(3.7766666666667)"><circle cx="3" cy="3" r="3"></circle></g>
<g transform="translate(770,242) scale(3.7766666666667)"><circle cx="3" cy="3" r="3"></circle></g>
<g transform="translate(792,242) scale(3.7766666666667)"><circle cx="3" cy="3" r="3"></circle></g>
<g transform="translate(836,242) scale(3.7766666666667)"><circle cx="3" cy="3" r="3"></circle></g>
<g transform="translate(880,242) scale(3.7766666666667)"><circle cx="3" cy="3" r="3"></circle></g>
<g transform="translate(902,242) scale(3.7766666666667)"><circle cx="3" cy="3" r="3"></circle></g>
<g transform="translate(924,242) scale(3.7766666666667)"><circle cx="3" cy="3" r="3"></circle></g>
<g transform="translate(110,264) scale(3.7766666666667)"><circle cx="3" cy="3" r="3"></circle></g>
<g transform="translate(154,264) scale(3.7766666666667)"><circle cx="3" cy="3" r="3"></circle></g>
<g transform="translate(176,264) scale(3.7766666666667)"><circle cx="3" cy="3" r="3"></circle></g>
<g transform="translate(264,264) scale(3.7766666666667)"><circle cx="3" cy="3" r="3"></circle></g>
<g transform="translate(330,264) scale(3.7766666666667)"><circle cx="3" cy="3" r="3"></circle></g>
<g transform="translate(374,264) scale(3.7766666666667)"><circle cx="3" cy="3" r="3"></circle></g>
<g transform="translate(396,264) scale(3.7766666666667)"><circle cx="3" cy="3" r="3"></circle></g>
<g transform="translate(462,264) scale(3.7766666666667)"><circle cx="3" cy="3" r="3"></circle></g>
<g transform="translate(484,264) scale(3.7766666666667)"><circle cx="3" cy="3" r="3"></circle></g>
<g transform="translate(528,264) scale(3.7766666666667)"><circle cx="3" cy="3" r="3"></circle></g>
<g transform="translate(550,264) scale(3.7766666666667)"><circle cx="3" cy="3" r="3"></circle></g>
<g transform="translate(572,264) scale(3.7766666666667)"><circle cx="3" cy="3" r="3"></circle></g>
<g transform="translate(594,264) scale(3.7766666666667)"><circle cx="3" cy="3" r="3"></circle></g>
<g transform="translate(638,264) scale(3.7766666666667)"><circle cx="3" cy="3" r="3"></circle></g>
<g transform="translate(660,264) scale(3.7766666666667)"><circle cx="3" cy="3" r="3"></circle></g>
<g transform="translate(704,264) scale(3.7766666666667)"><circle cx="3" cy="3" r="3"></circle></g>
<g transform="translate(748,264) scale(3.7766666666667)"><circle cx="3" cy="3" r="3"></circle></g>
<g transform="translate(792,264) scale(3.7766666666667)"><circle cx="3" cy="3" r="3"></circle></g>
<g transform="translate(814,264) scale(3.7766666666667)"><circle cx="3" cy="3" r="3"></circle></g>
<g transform="translate(44,286) scale(3.7766666666667)"><circle cx="3" cy="3" r="3"></circle></g>
<g transform="translate(88,286) scale(3.7766666666667)"><circle cx="3" cy="3" r="3"></circle></g>
<g transform="translate(132,286) scale(3.7766666666667)"><circle cx="3" cy="3" r="3"></circle></g>
<g transform="translate(154,286) scale(3.7766666666667)"><circle cx="3" cy="3" r="3"></circle></g>
<g transform="translate(198,286) scale(3.7766666666667)"><circle cx="3" cy="3" r="3"></circle></g>
<g transform="translate(286,286) scale(3.7766666666667)"><circle cx="3" cy="3" r="3"></circle></g>
<g transform="translate(308,286) scale(3.7766666666667)"><circle cx="3" cy="3" r="3"></circle></g>
<g transform="translate(330,286) scale(3.7766666666667)"><circle cx="3" cy="3" r="3"></circle></g>
<g transform="translate(374,286) scale(3.7766666666667)"><circle cx="3" cy="3" r="3"></circle></g>
<g transform="translate(440,286) scale(3.7766666666667)"><circle cx="3" cy="3" r="3"></circle></g>
<g transform="translate(462,286) scale(3.7766666666667)"><circle cx="3" cy="3" r="3"></circle></g>
<g transform="translate(506,286) scale(3.7766666666667)"><circle cx="3" cy="3" r="3"></circle></g>
<g transform="translate(616,286) scale(3.7766666666667)"><circle cx="3" cy="3" r="3"></circle></g>
<g transform="translate(638,286) scale(3.7766666666667)"><circle cx="3" cy="3" r="3"></circle></g>
<g transform="translate(660,286) scale(3.7766666666667)"><circle cx="3" cy="3" r="3"></circle></g>
<g transform="translate(726,286) scale(3.7766666666667)"><circle cx="3" cy="3" r="3"></circle></g>
<g transform="translate(748,286) scale(3.7766666666667)"><circle cx="3" cy="3" r="3"></circle></g>
<g transform="translate(836,286) scale(3.7766666666667)"><circle cx="3" cy="3" r="3"></circle></g>
<g transform="translate(858,286) scale(3.7766666666667)"><circle cx="3" cy="3" r="3"></circle></g>
<g transform="translate(924,286) scale(3.7766666666667)"><circle cx="3" cy="3" r="3"></circle></g>
<g transform="translate(110,308) scale(3.7766666666667)"><circle cx="3" cy="3" r="3"></circle></g>
<g transform="translate(132,308) scale(3.7766666666667)"><circle cx="3" cy="3" r="3"></circle></g>
<g transform="translate(154,308) scale(3.7766666666667)"><circle cx="3" cy="3" r="3"></circle></g>
<g transform="translate(176,308) scale(3.7766666666667)"><circle cx="3" cy="3" r="3"></circle></g>
<g transform="translate(198,308) scale(3.7766666666667)"><circle cx="3" cy="3" r="3"></circle></g>
<g transform="translate(220,308) scale(3.7766666666667)"><circle cx="3" cy="3" r="3"></circle></g>
<g transform="translate(286,308) scale(3.7766666666667)"><circle cx="3" cy="3" r="3"></circle></g>
<g transform="translate(308,308) scale(3.7766666666667)"><circle cx="3" cy="3" r="3"></circle></g>
<g transform="translate(352,308) scale(3.7766666666667)"><circle cx="3" cy="3" r="3"></circle></g>
<g transform="translate(484,308) scale(3.7766666666667)"><circle cx="3" cy="3" r="3"></circle></g>
<g transform="translate(528,308) scale(3.7766666666667)"><circle cx="3" cy="3" r="3"></circle></g>
<g transform="translate(550,308) scale(3.7766666666667)"><circle cx="3" cy="3" r="3"></circle></g>
<g transform="translate(594,308) scale(3.7766666666667)"><circle cx="3" cy="3" r="3"></circle></g>
<g transform="translate(638,308) scale(3.7766666666667)"><circle cx="3" cy="3" r="3"></circle></g>
<g transform="translate(660,308) scale(3.7766666666667)"><circle cx="3" cy="3" r="3"></circle></g>
<g transform="translate(682,308) scale(3.7766666666667)"><circle cx="3" cy="3" r="3"></circle></g>
<g transform="translate(726,308) scale(3.7766666666667)"><circle cx="3" cy="3" r="3"></circle></g>
<g transform="translate(814,308) scale(3.7766666666667)"><circle cx="3" cy="3" r="3"></circle></g>
<g transform="translate(858,308) scale(3.7766666666667)"><circle cx="3" cy="3" r="3"></circle></g>
<g transform="translate(880,308) scale(3.7766666666667)"><circle cx="3" cy="3" r="3"></circle></g>
<g transform="translate(924,308) scale(3.7766666666667)"><circle cx="3" cy="3" r="3"></circle></g>
<g transform="translate(44,330) scale(3.7766666666667)"><circle cx="3" cy="3" r="3"></circle></g>
<g transform="translate(132,330) scale(3.7766666666667)"><circle cx="3" cy="3" r="3"></circle></g>
<g transform="translate(154,330) scale(3.7766666666667)"><circle cx="3" cy="3" r="3"></circle></g>
<g transform="translate(198,330) scale(3.7766666666667)"><circle cx="3" cy="3" r="3"></circle></g>
<g transform="translate(264,330) scale(3.7766666666667)"><circle cx="3" cy="3" r="3"></circle></g>
<g transform="translate(308,330) scale(3.7766666666667)"><circle cx="3" cy="3" r="3"></circle></g>
<g transform="translate(330,330) scale(3.7766666666667)"><circle cx="3" cy="3" r="3"></circle></g>
<g transform="translate(374,330) scale(3.7766666666667)"><circle cx="3" cy="3" r="3"></circle></g>
<g transform="translate(396,330) scale(3.7766666666667)"><circle cx="3" cy="3" r="3"></circle></g>
<g transform="translate(418,330) scale(3.7766666666667)"><circle cx="3" cy="3" r="3"></circle></g>
<g transform="translate(440,330) scale(3.7766666666667)"><circle cx="3" cy="3" r="3"></circle></g>
<g transform="translate(462,330) scale(3.7766666666667)"><circle cx="3" cy="3" r="3"></circle></g>
<g transform="translate(550,330) scale(3.7766666666667)"><circle cx="3" cy="3" r="3"></circle></g>
<g transform="translate(572,330) scale(3.7766666666667)"><circle cx="3" cy="3" r="3"></circle></g>
<g transform="translate(594,330) scale(3.7766666666667)"><circle cx="3" cy="3" r="3"></circle></g>
<g transform="translate(616,330) scale(3.7766666666667)"><circle cx="3" cy="3" r="3"></circle></g>
<g transform="translate(638,330) scale(3.7766666666667)"><circle cx="3" cy="3" r="3"></circle></g>
<g transform="translate(704,330) scale(3.7766666666667)"><circle cx="3" cy="3" r="3"></circle></g>
<g transform="translate(726,330) scale(3.7766666666667)"><circle cx="3" cy="3" r="3"></circle></g>
<g transform="translate(748,330) scale(3.7766666666667)"><circle cx="3" cy="3" r="3"></circle></g>
<g transform="translate(770,330) scale(3.7766666666667)"><circle cx="3" cy="3" r="3"></circle></g>
<g transform="translate(792,330) scale(3.7766666666667)"><circle cx="3" cy="3" r="3"></circle></g>
<g transform="translate(814,330) scale(3.7766666666667)"><circle cx="3" cy="3" r="3"></circle></g>
<g transform="translate(836,330) scale(3.7766666666667)"><circle cx="3" cy="3" r="3"></circle></g>
<g transform="translate(902,330) scale(3.7766666666667)"><circle cx="3" cy="3" r="3"></circle></g>
<g transform="translate(924,330) scale(3.7766666666667)"><circle cx="3" cy="3" r="3"></circle></g>
<g transform="translate(44,352) scale(3.7766666666667)"><circle cx="3" cy="3" r="3"></circle></g>
<g transform="translate(66,352) scale(3.7766666666667)"><circle cx="3" cy="3" r="3"></circle></g>
<g transform="translate(110,352) scale(3.7766666666667)"><circle cx="3" cy="3" r="3"></circle></g>
<g transform="translate(176,352) scale(3.7766666666667)"><circle cx="3" cy="3" r="3"></circle></g>
<g transform="translate(198,352) scale(3.7766666666667)"><circle cx="3" cy="3" r="3"></circle></g>
<g transform="translate(286,352) scale(3.7766666666667)"><circle cx="3" cy="3" r="3"></circle></g>
<g transform="translate(352,352) scale(3.7766666666667)"><circle cx="3" cy="3" r="3"></circle></g>
<g transform="translate(374,352) scale(3.7766666666667)"><circle cx="3" cy="3" r="3"></circle></g>
<g transform="translate(440,352) scale(3.7766666666667)"><circle cx="3" cy="3" r="3"></circle></g>
<g transform="translate(484,352) scale(3.7766666666667)"><circle cx="3" cy="3" r="3"></circle></g>
<g transform="translate(506,352) scale(3.7766666666667)"><circle cx="3" cy="3" r="3"></circle></g>
<g transform="translate(528,352) scale(3.7766666666667)"><circle cx="3" cy="3" r="3"></circle></g>
<g transform="translate(572,352) scale(3.7766666666667)"><circle cx="3" cy="3" r="3"></circle></g>
<g transform="translate(594,352) scale(3.7766666666667)"><circle cx="3" cy="3" r="3"></circle></g>
<g transform="translate(616,352) scale(3.7766666666667)"><circle cx="3" cy="3" r="3"></circle></g>
<g transform="translate(638,352) scale(3.7766666666667)"><circle cx="3" cy="3" r="3"></circle></g>
<g transform="translate(660,352) scale(3.7766666666667)"><circle cx="3" cy="3" r="3"></circle></g>
<g transform="translate(748,352) scale(3.7766666666667)"><circle cx="3" cy="3" r="3"></circle></g>
<g transform="translate(770,352) scale(3.7766666666667)"><circle cx="3" cy="3" r="3"></circle></g>
<g transform="translate(814,352) scale(3.7766666666667)"><circle cx="3" cy="3" r="3"></circle></g>
<g transform="translate(858,352) scale(3.7766666666667)"><circle cx="3" cy="3" r="3"></circle></g>
<g transform="translate(880,352) scale(3.7766666666667)"><circle cx="3" cy="3" r="3"></circle></g>
<g transform="translate(902,352) scale(3.7766666666667)"><circle cx="3" cy="3" r="3"></circle></g>
<g transform="translate(44,374) scale(3.7766666666667)"><circle cx="3" cy="3" r="3"></circle></g>
<g transform="translate(88,374) scale(3.7766666666667)"><circle cx="3" cy="3" r="3"></circle></g>
<g transform="translate(220,374) scale(3.7766666666667)"><circle cx="3" cy="3" r="3"></circle></g>
<g transform="translate(242,374) scale(3.7766666666667)"><circle cx="3" cy="3" r="3"></circle></g>
<g transform="translate(264,374) scale(3.7766666666667)"><circle cx="3" cy="3" r="3"></circle></g>
<g transform="translate(286,374) scale(3.7766666666667)"><circle cx="3" cy="3" r="3"></circle></g>
<g transform="translate(330,374) scale(3.7766666666667)"><circle cx="3" cy="3" r="3"></circle></g>
<g transform="translate(374,374) scale(3.7766666666667)"><circle cx="3" cy="3" r="3"></circle></g>
<g transform="translate(396,374) scale(3.7766666666667)"><circle cx="3" cy="3" r="3"></circle></g>
<g transform="translate(462,374) scale(3.7766666666667)"><circle cx="3" cy="3" r="3"></circle></g>
<g transform="translate(528,374) scale(3.7766666666667)"><circle cx="3" cy="3" r="3"></circle></g>
<g transform="translate(550,374) scale(3.7766666666667)"><circle cx="3" cy="3" r="3"></circle></g>
<g transform="translate(594,374) scale(3.7766666666667)"><circle cx="3" cy="3" r="3"></circle></g>
<g transform="translate(638,374) scale(3.7766666666667)"><circle cx="3" cy="3" r="3"></circle></g>
<g transform="translate(792,374) scale(3.7766666666667)"><circle cx="3" cy="3" r="3"></circle></g>
<g transform="translate(814,374) scale(3.7766666666667)"><circle cx="3" cy="3" r="3"></circle></g>
<g transform="translate(858,374) scale(3.7766666666667)"><circle cx="3" cy="3" r="3"></circle></g>
<g transform="translate(902,374) scale(3.7766666666667)"><circle cx="3" cy="3" r="3"></circle></g>
<g transform="translate(44,396) scale(3.7766666666667)"><circle cx="3" cy="3" r="3"></circle></g>
<g transform="translate(66,396) scale(3.7766666666667)"><circle cx="3" cy="3" r="3"></circle></g>
<g transform="translate(132,396) scale(3.7766666666667)"><circle cx="3" cy="3" r="3"></circle></g>
<g transform="translate(176,396) scale(3.7766666666667)"><circle cx="3" cy="3" r="3"></circle></g>
<g transform="translate(220,396) scale(3.7766666666667)"><circle cx="3" cy="3" r="3"></circle></g>
<g transform="translate(242,396) scale(3.7766666666667)"><circle cx="3" cy="3" r="3"></circle></g>
<g transform="translate(264,396) scale(3.7766666666667)"><circle cx="3" cy="3" r="3"></circle></g>
<g transform="translate(286,396) scale(3.7766666666667)"><circle cx="3" cy="3" r="3"></circle></g>
<g transform="translate(308,396) scale(3.7766666666667)"><circle cx="3" cy="3" r="3"></circle></g>
<g transform="translate(374,396) scale(3.7766666666667)"><circle cx="3" cy="3" r="3"></circle></g>
<g transform="translate(440,396) scale(3.7766666666667)"><circle cx="3" cy="3" r="3"></circle></g>
<g transform="translate(462,396) scale(3.7766666666667)"><circle cx="3" cy="3" r="3"></circle></g>
<g transform="translate(484,396) scale(3.7766666666667)"><circle cx="3" cy="3" r="3"></circle></g>
<g transform="translate(528,396) scale(3.7766666666667)"><circle cx="3" cy="3" r="3"></circle></g>
<g transform="translate(594,396) scale(3.7766666666667)"><circle cx="3" cy="3" r="3"></circle></g>
<g transform="translate(616,396) scale(3.7766666666667)"><circle cx="3" cy="3" r="3"></circle></g>
<g transform="translate(638,396) scale(3.7766666666667)"><circle cx="3" cy="3" r="3"></circle></g>
<g transform="translate(682,396) scale(3.7766666666667)"><circle cx="3" cy="3" r="3"></circle></g>
<g transform="translate(748,396) scale(3.7766666666667)"><circle cx="3" cy="3" r="3"></circle></g>
<g transform="translate(770,396) scale(3.7766666666667)"><circle cx="3" cy="3" r="3"></circle></g>
<g transform="translate(814,396) scale(3.7766666666667)"><circle cx="3" cy="3" r="3"></circle></g>
<g transform="translate(880,396) scale(3.7766666666667)"><circle cx="3" cy="3" r="3"></circle></g>
<g transform="translate(902,396) scale(3.7766666666667)"><circle cx="3" cy="3" r="3"></circle></g>
<g transform="translate(924,396) scale(3.7766666666667)"><circle cx="3" cy="3" r="3"></circle></g>
<g transform="translate(44,418) scale(3.7766666666667)"><circle cx="3" cy="3" r="3"></circle></g>
<g transform="translate(88,418) scale(3.7766666666667)"><circle cx="3" cy="3" r="3"></circle></g>
<g transform="translate(242,418) scale(3.7766666666667)"><circle cx="3" cy="3" r="3"></circle></g>
<g transform="translate(308,418) scale(3.7766666666667)"><circle cx="3" cy="3" r="3"></circle></g>
<g transform="translate(330,418) scale(3.7766666666667)"><circle cx="3" cy="3" r="3"></circle></g>
<g transform="translate(396,418) scale(3.7766666666667)"><circle cx="3" cy="3" r="3"></circle></g>
<g transform="translate(528,418) scale(3.7766666666667)"><circle cx="3" cy="3" r="3"></circle></g>
<g transform="translate(550,418) scale(3.7766666666667)"><circle cx="3" cy="3" r="3"></circle></g>
<g transform="translate(572,418) scale(3.7766666666667)"><circle cx="3" cy="3" r="3"></circle></g>
<g transform="translate(594,418) scale(3.7766666666667)"><circle cx="3" cy="3" r="3"></circle></g>
<g transform="translate(682,418) scale(3.7766666666667)"><circle cx="3" cy="3" r="3"></circle></g>
<g transform="translate(726,418) scale(3.7766666666667)"><circle cx="3" cy="3" r="3"></circle></g>
<g transform="translate(748,418) scale(3.7766666666667)"><circle cx="3" cy="3" r="3"></circle></g>
<g transform="translate(792,418) scale(3.7766666666667)"><circle cx="3" cy="3" r="3"></circle></g>
<g transform="translate(814,418) scale(3.7766666666667)"><circle cx="3" cy="3" r="3"></circle></g>
<g transform="translate(836,418) scale(3.7766666666667)"><circle cx="3" cy="3" r="3"></circle></g>
<g transform="translate(858,418) scale(3.7766666666667)"><circle cx="3" cy="3" r="3"></circle></g>
<g transform="translate(880,418) scale(3.7766666666667)"><circle cx="3" cy="3" r="3"></circle></g>
<g transform="translate(902,418) scale(3.7766666666667)"><circle cx="3" cy="3" r="3"></circle></g>
<g transform="translate(924,418) scale(3.7766666666667)"><circle cx="3" cy="3" r="3"></circle></g>
<g transform="translate(44,440) scale(3.7766666666667)"><circle cx="3" cy="3" r="3"></circle></g>
<g transform="translate(66,440) scale(3.7766666666667)"><circle cx="3" cy="3" r="3"></circle></g>
<g transform="translate(154,440) scale(3.7766666666667)"><circle cx="3" cy="3" r="3"></circle></g>
<g transform="translate(176,440) scale(3.7766666666667)"><circle cx="3" cy="3" r="3"></circle></g>
<g transform="translate(220,440) scale(3.7766666666667)"><circle cx="3" cy="3" r="3"></circle></g>
<g transform="translate(264,440) scale(3.7766666666667)"><circle cx="3" cy="3" r="3"></circle></g>
<g transform="translate(308,440) scale(3.7766666666667)"><circle cx="3" cy="3" r="3"></circle></g>
<g transform="translate(396,440) scale(3.7766666666667)"><circle cx="3" cy="3" r="3"></circle></g>
<g transform="translate(418,440) scale(3.7766666666667)"><circle cx="3" cy="3" r="3"></circle></g>
<g transform="translate(506,440) scale(3.7766666666667)"><circle cx="3" cy="3" r="3"></circle></g>
<g transform="translate(594,440) scale(3.7766666666667)"><circle cx="3" cy="3" r="3"></circle></g>
<g transform="translate(638,440) scale(3.7766666666667)"><circle cx="3" cy="3" r="3"></circle></g>
<g transform="translate(660,440) scale(3.7766666666667)"><circle cx="3" cy="3" r="3"></circle></g>
<g transform="translate(682,440) scale(3.7766666666667)"><circle cx="3" cy="3" r="3"></circle></g>
<g transform="translate(748,440) scale(3.7766666666667)"><circle cx="3" cy="3" r="3"></circle></g>
<g transform="translate(836,440) scale(3.7766666666667)"><circle cx="3" cy="3" r="3"></circle></g>
<g transform="translate(858,440) scale(3.7766666666667)"><circle cx="3" cy="3" r="3"></circle></g>
<g transform="translate(880,440) scale(3.7766666666667)"><circle cx="3" cy="3" r="3"></circle></g>
<g transform="translate(110,462) scale(3.7766666666667)"><circle cx="3" cy="3" r="3"></circle></g>
<g transform="translate(132,462) scale(3.7766666666667)"><circle cx="3" cy="3" r="3"></circle></g>
<g transform="translate(198,462) scale(3.7766666666667)"><circle cx="3" cy="3" r="3"></circle></g>
<g transform="translate(242,462) scale(3.7766666666667)"><circle cx="3" cy="3" r="3"></circle></g>
<g transform="translate(352,462) scale(3.7766666666667)"><circle cx="3" cy="3" r="3"></circle></g>
<g transform="translate(418,462) scale(3.7766666666667)"><circle cx="3" cy="3" r="3"></circle></g>
<g transform="translate(440,462) scale(3.7766666666667)"><circle cx="3" cy="3" r="3"></circle></g>
<g transform="translate(462,462) scale(3.7766666666667)"><circle cx="3" cy="3" r="3"></circle></g>
<g transform="translate(484,462) scale(3.7766666666667)"><circle cx="3" cy="3" r="3"></circle></g>
<g transform="translate(506,462) scale(3.7766666666667)"><circle cx="3" cy="3" r="3"></circle></g>
<g transform="translate(528,462) scale(3.7766666666667)"><circle cx="3" cy="3" r="3"></circle></g>
<g transform="translate(616,462) scale(3.7766666666667)"><circle cx="3" cy="3" r="3"></circle></g>
<g transform="translate(638,462) scale(3.7766666666667)"><circle cx="3" cy="3" r="3"></circle></g>
<g transform="translate(682,462) scale(3.7766666666667)"><circle cx="3" cy="3" r="3"></circle></g>
<g transform="translate(704,462) scale(3.7766666666667)"><circle cx="3" cy="3" r="3"></circle></g>
<g transform="translate(726,462) scale(3.7766666666667)"><circle cx="3" cy="3" r="3"></circle></g>
<g transform="translate(748,462) scale(3.7766666666667)"><circle cx="3" cy="3" r="3"></circle></g>
<g transform="translate(770,462) scale(3.7766666666667)"><circle cx="3" cy="3" r="3"></circle></g>
<g transform="translate(792,462) scale(3.7766666666667)"><circle cx="3" cy="3" r="3"></circle></g>
<g transform="translate(836,462) scale(3.7766666666667)"><circle cx="3" cy="3" r="3"></circle></g>
<g transform="translate(858,462) scale(3.7766666666667)"><circle cx="3" cy="3" r="3"></circle></g>
<g transform="translate(902,462) scale(3.7766666666667)"><circle cx="3" cy="3" r="3"></circle></g>
<g transform="translate(924,462) scale(3.7766666666667)"><circle cx="3" cy="3" r="3"></circle></g>
<g transform="translate(44,484) scale(3.7766666666667)"><circle cx="3" cy="3" r="3"></circle></g>
<g transform="translate(88,484) scale(3.7766666666667)"><circle cx="3" cy="3" r="3"></circle></g>
<g transform="translate(176,484) scale(3.7766666666667)"><circle cx="3" cy="3" r="3"></circle></g>
<g transform="translate(242,484) scale(3.7766666666667)"><circle cx="3" cy="3" r="3"></circle></g>
<g transform="translate(264,484) scale(3.7766666666667)"><circle cx="3" cy="3" r="3"></circle></g>
<g transform="translate(286,484) scale(3.7766666666667)"><circle cx="3" cy="3" r="3"></circle></g>
<g transform="translate(330,484) scale(3.7766666666667)"><circle cx="3" cy="3" r="3"></circle></g>
<g transform="translate(352,484) scale(3.7766666666667)"><circle cx="3" cy="3" r="3"></circle></g>
<g transform="translate(374,484) scale(3.7766666666667)"><circle cx="3" cy="3" r="3"></circle></g>
<g transform="translate(396,484) scale(3.7766666666667)"><circle cx="3" cy="3" r="3"></circle></g>
<g transform="translate(440,484) scale(3.7766666666667)"><circle cx="3" cy="3" r="3"></circle></g>
<g transform="translate(484,484) scale(3.7766666666667)"><circle cx="3" cy="3" r="3"></circle></g>
<g transform="translate(550,484) scale(3.7766666666667)"><circle cx="3" cy="3" r="3"></circle></g>
<g transform="translate(572,484) scale(3.7766666666667)"><circle cx="3" cy="3" r="3"></circle></g>
<g transform="translate(660,484) scale(3.7766666666667)"><circle cx="3" cy="3" r="3"></circle></g>
<g transform="translate(726,484) scale(3.7766666666667)"><circle cx="3" cy="3" r="3"></circle></g>
<g transform="translate(748,484) scale(3.7766666666667)"><circle cx="3" cy="3" r="3"></circle></g>
<g transform="translate(880,484) scale(3.7766666666667)"><circle cx="3" cy="3" r="3"></circle></g>
<g transform="translate(924,484) scale(3.7766666666667)"><circle cx="3" cy="3" r="3"></circle></g>
<g transform="translate(44,506) scale(3.7766666666667)"><circle cx="3" cy="3" r="3"></circle></g>
<g transform="translate(198,506) scale(3.7766666666667)"><circle cx="3" cy="3" r="3"></circle></g>
<g transform="translate(264,506) scale(3.7766666666667)"><circle cx="3" cy="3" r="3"></circle></g>
<g transform="translate(286,506) scale(3.7766666666667)"><circle cx="3" cy="3" r="3"></circle></g>
<g transform="translate(308,506) scale(3.7766666666667)"><circle cx="3" cy="3" r="3"></circle></g>
<g transform="translate(330,506) scale(3.7766666666667)"><circle cx="3" cy="3" r="3"></circle></g>
<g transform="translate(352,506) scale(3.7766666666667)"><circle cx="3" cy="3" r="3"></circle></g>
<g transform="translate(374,506) scale(3.7766666666667)"><circle cx="3" cy="3" r="3"></circle></g>
<g transform="translate(396,506) scale(3.7766666666667)"><circle cx="3" cy="3" r="3"></circle></g>
<g transform="translate(440,506) scale(3.7766666666667)"><circle cx="3" cy="3" r="3"></circle></g>
<g transform="translate(462,506) scale(3.7766666666667)"><circle cx="3" cy="3" r="3"></circle></g>
<g transform="translate(484,506) scale(3.7766666666667)"><circle cx="3" cy="3" r="3"></circle></g>
<g transform="translate(572,506) scale(3.7766666666667)"><circle cx="3" cy="3" r="3"></circle></g>
<g transform="translate(594,506) scale(3.7766666666667)"><circle cx="3" cy="3" r="3"></circle></g>
<g transform="translate(616,506) scale(3.7766666666667)"><circle cx="3" cy="3" r="3"></circle></g>
<g transform="translate(660,506) scale(3.7766666666667)"><circle cx="3" cy="3" r="3"></circle></g>
<g transform="translate(682,506) scale(3.7766666666667)"><circle cx="3" cy="3" r="3"></circle></g>
<g transform="translate(704,506) scale(3.7766666666667)"><circle cx="3" cy="3" r="3"></circle></g>
<g transform="translate(726,506) scale(3.7766666666667)"><circle cx="3" cy="3" r="3"></circle></g>
<g transform="translate(748,506) scale(3.7766666666667)"><circle cx="3" cy="3" r="3"></circle></g>
<g transform="translate(770,506) scale(3.7766666666667)"><circle cx="3" cy="3" r="3"></circle></g>
<g transform="translate(792,506) scale(3.7766666666667)"><circle cx="3" cy="3" r="3"></circle></g>
<g transform="translate(836,506) scale(3.7766666666667)"><circle cx="3" cy="3" r="3"></circle></g>
<g transform="translate(858,506) scale(3.7766666666667)"><circle cx="3" cy="3" r="3"></circle></g>
<g transform="translate(880,506) scale(3.7766666666667)"><circle cx="3" cy="3" r="3"></circle></g>
<g transform="translate(902,506) scale(3.7766666666667)"><circle cx="3" cy="3" r="3"></circle></g>
<g transform="translate(924,506) scale(3.7766666666667)"><circle cx="3" cy="3" r="3"></circle></g>
<g transform="translate(66,528) scale(3.7766666666667)"><circle cx="3" cy="3" r="3"></circle></g>
<g transform="translate(88,528) scale(3.7766666666667)"><circle cx="3" cy="3" r="3"></circle></g>
<g transform="translate(132,528) scale(3.7766666666667)"><circle cx="3" cy="3" r="3"></circle></g>
<g transform="translate(176,528) scale(3.7766666666667)"><circle cx="3" cy="3" r="3"></circle></g>
<g transform="translate(220,528) scale(3.7766666666667)"><circle cx="3" cy="3" r="3"></circle></g>
<g transform="translate(242,528) scale(3.7766666666667)"><circle cx="3" cy="3" r="3"></circle></g>
<g transform="translate(264,528) scale(3.7766666666667)"><circle cx="3" cy="3" r="3"></circle></g>
<g transform="translate(286,528) scale(3.7766666666667)"><circle cx="3" cy="3" r="3"></circle></g>
<g transform="translate(352,528) scale(3.7766666666667)"><circle cx="3" cy="3" r="3"></circle></g>
<g transform="translate(418,528) scale(3.7766666666667)"><circle cx="3" cy="3" r="3"></circle></g>
<g transform="translate(484,528) scale(3.7766666666667)"><circle cx="3" cy="3" r="3"></circle></g>
<g transform="translate(506,528) scale(3.7766666666667)"><circle cx="3" cy="3" r="3"></circle></g>
<g transform="translate(550,528) scale(3.7766666666667)"><circle cx="3" cy="3" r="3"></circle></g>
<g transform="translate(572,528) scale(3.7766666666667)"><circle cx="3" cy="3" r="3"></circle></g>
<g transform="translate(594,528) scale(3.7766666666667)"><circle cx="3" cy="3" r="3"></circle></g>
<g transform="translate(616,528) scale(3.7766666666667)"><circle cx="3" cy="3" r="3"></circle></g>
<g transform="translate(638,528) scale(3.7766666666667)"><circle cx="3" cy="3" r="3"></circle></g>
<g transform="translate(704,528) scale(3.7766666666667)"><circle cx="3" cy="3" r="3"></circle></g>
<g transform="translate(748,528) scale(3.7766666666667)"><circle cx="3" cy="3" r="3"></circle></g>
<g transform="translate(792,528) scale(3.7766666666667)"><circle cx="3" cy="3" r="3"></circle></g>
<g transform="translate(814,528) scale(3.7766666666667)"><circle cx="3" cy="3" r="3"></circle></g>
<g transform="translate(858,528) scale(3.7766666666667)"><circle cx="3" cy="3" r="3"></circle></g>
<g transform="translate(880,528) scale(3.7766666666667)"><circle cx="3" cy="3" r="3"></circle></g>
<g transform="translate(44,550) scale(3.7766666666667)"><circle cx="3" cy="3" r="3"></circle></g>
<g transform="translate(66,550) scale(3.7766666666667)"><circle cx="3" cy="3" r="3"></circle></g>
<g transform="translate(132,550) scale(3.7766666666667)"><circle cx="3" cy="3" r="3"></circle></g>
<g transform="translate(198,550) scale(3.7766666666667)"><circle cx="3" cy="3" r="3"></circle></g>
<g transform="translate(220,550) scale(3.7766666666667)"><circle cx="3" cy="3" r="3"></circle></g>
<g transform="translate(286,550) scale(3.7766666666667)"><circle cx="3" cy="3" r="3"></circle></g>
<g transform="translate(330,550) scale(3.7766666666667)"><circle cx="3" cy="3" r="3"></circle></g>
<g transform="translate(396,550) scale(3.7766666666667)"><circle cx="3" cy="3" r="3"></circle></g>
<g transform="translate(418,550) scale(3.7766666666667)"><circle cx="3" cy="3" r="3"></circle></g>
<g transform="translate(462,550) scale(3.7766666666667)"><circle cx="3" cy="3" r="3"></circle></g>
<g transform="translate(484,550) scale(3.7766666666667)"><circle cx="3" cy="3" r="3"></circle></g>
<g transform="translate(506,550) scale(3.7766666666667)"><circle cx="3" cy="3" r="3"></circle></g>
<g transform="translate(550,550) scale(3.7766666666667)"><circle cx="3" cy="3" r="3"></circle></g>
<g transform="translate(572,550) scale(3.7766666666667)"><circle cx="3" cy="3" r="3"></circle></g>
<g transform="translate(638,550) scale(3.7766666666667)"><circle cx="3" cy="3" r="3"></circle></g>
<g transform="translate(726,550) scale(3.7766666666667)"><circle cx="3" cy="3" r="3"></circle></g>
<g transform="translate(836,550) scale(3.7766666666667)"><circle cx="3" cy="3" r="3"></circle></g>
<g transform="translate(858,550) scale(3.7766666666667)"><circle cx="3" cy="3" r="3"></circle></g>
<g transform="translate(44,572) scale(3.7766666666667)"><circle cx="3" cy="3" r="3"></circle></g>
<g transform="translate(176,572) scale(3.7766666666667)"><circle cx="3" cy="3" r="3"></circle></g>
<g transform="translate(198,572) scale(3.7766666666667)"><circle cx="3" cy="3" r="3"></circle></g>
<g transform="translate(286,572) scale(3.7766666666667)"><circle cx="3" cy="3" r="3"></circle></g>
<g transform="translate(352,572) scale(3.7766666666667)"><circle cx="3" cy="3" r="3"></circle></g>
<g transform="translate(440,572) scale(3.7766666666667)"><circle cx="3" cy="3" r="3"></circle></g>
<g transform="translate(506,572) scale(3.7766666666667)"><circle cx="3" cy="3" r="3"></circle></g>
<g transform="translate(528,572) scale(3.7766666666667)"><circle cx="3" cy="3" r="3"></circle></g>
<g transform="translate(550,572) scale(3.7766666666667)"><circle cx="3" cy="3" r="3"></circle></g>
<g transform="translate(572,572) scale(3.7766666666667)"><circle cx="3" cy="3" r="3"></circle></g>
<g transform="translate(594,572) scale(3.7766666666667)"><circle cx="3" cy="3" r="3"></circle></g>
<g transform="translate(660,572) scale(3.7766666666667)"><circle cx="3" cy="3" r="3"></circle></g>
<g transform="translate(682,572) scale(3.7766666666667)"><circle cx="3" cy="3" r="3"></circle></g>
<g transform="translate(814,572) scale(3.7766666666667)"><circle cx="3" cy="3" r="3"></circle></g>
<g transform="translate(880,572) scale(3.7766666666667)"><circle cx="3" cy="3" r="3"></circle></g>
<g transform="translate(44,594) scale(3.7766666666667)"><circle cx="3" cy="3" r="3"></circle></g>
<g transform="translate(88,594) scale(3.7766666666667)"><circle cx="3" cy="3" r="3"></circle></g>
<g transform="translate(110,594) scale(3.7766666666667)"><circle cx="3" cy="3" r="3"></circle></g>
<g transform="translate(132,594) scale(3.7766666666667)"><circle cx="3" cy="3" r="3"></circle></g>
<g transform="translate(154,594) scale(3.7766666666667)"><circle cx="3" cy="3" r="3"></circle></g>
<g transform="translate(198,594) scale(3.7766666666667)"><circle cx="3" cy="3" r="3"></circle></g>
<g transform="translate(286,594) scale(3.7766666666667)"><circle cx="3" cy="3" r="3"></circle></g>
<g transform="translate(418,594) scale(3.7766666666667)"><circle cx="3" cy="3" r="3"></circle></g>
<g transform="translate(462,594) scale(3.7766666666667)"><circle cx="3" cy="3" r="3"></circle></g>
<g transform="translate(484,594) scale(3.7766666666667)"><circle cx="3" cy="3" r="3"></circle></g>
<g transform="translate(506,594) scale(3.7766666666667)"><circle cx="3" cy="3" r="3"></circle></g>
<g transform="translate(550,594) scale(3.7766666666667)"><circle cx="3" cy="3" r="3"></circle></g>
<g transform="translate(572,594) scale(3.7766666666667)"><circle cx="3" cy="3" r="3"></circle></g>
<g transform="translate(660,594) scale(3.7766666666667)"><circle cx="3" cy="3" r="3"></circle></g>
<g transform="translate(682,594) scale(3.7766666666667)"><circle cx="3" cy="3" r="3"></circle></g>
<g transform="translate(726,594) scale(3.7766666666667)"><circle cx="3" cy="3" r="3"></circle></g>
<g transform="translate(792,594) scale(3.7766666666667)"><circle cx="3" cy="3" r="3"></circle></g>
<g transform="translate(814,594) scale(3.7766666666667)"><circle cx="3" cy="3" r="3"></circle></g>
<g transform="translate(836,594) scale(3.7766666666667)"><circle cx="3" cy="3" r="3"></circle></g>
<g transform="translate(858,594) scale(3.7766666666667)"><circle cx="3" cy="3" r="3"></circle></g>
<g transform="translate(902,594) scale(3.7766666666667)"><circle cx="3" cy="3" r="3"></circle></g>
<g transform="translate(924,594) scale(3.7766666666667)"><circle cx="3" cy="3" r="3"></circle></g>
<g transform="translate(44,616) scale(3.7766666666667)"><circle cx="3" cy="3" r="3"></circle></g>
<g transform="translate(88,616) scale(3.7766666666667)"><circle cx="3" cy="3" r="3"></circle></g>
<g transform="translate(132,616) scale(3.7766666666667)"><circle cx="3" cy="3" r="3"></circle></g>
<g transform="translate(154,616) scale(3.7766666666667)"><circle cx="3" cy="3" r="3"></circle></g>
<g transform="translate(176,616) scale(3.7766666666667)"><circle cx="3" cy="3" r="3"></circle></g>
<g transform="translate(220,616) scale(3.7766666666667)"><circle cx="3" cy="3" r="3"></circle></g>
<g transform="translate(308,616) scale(3.7766666666667)"><circle cx="3" cy="3" r="3"></circle></g>
<g transform="translate(330,616) scale(3.7766666666667)"><circle cx="3" cy="3" r="3"></circle></g>
<g transform="translate(352,616) scale(3.7766666666667)"><circle cx="3" cy="3" r="3"></circle></g>
<g transform="translate(374,616) scale(3.7766666666667)"><circle cx="3" cy="3" r="3"></circle></g>
<g transform="translate(396,616) scale(3.7766666666667)"><circle cx="3" cy="3" r="3"></circle></g>
<g transform="translate(440,616) scale(3.7766666666667)"><circle cx="3" cy="3" r="3"></circle></g>
<g transform="translate(506,616) scale(3.7766666666667)"><circle cx="3" cy="3" r="3"></circle></g>
<g transform="translate(528,616) scale(3.7766666666667)"><circle cx="3" cy="3" r="3"></circle></g>
<g transform="translate(550,616) scale(3.7766666666667)"><circle cx="3" cy="3" r="3"></circle></g>
<g transform="translate(616,616) scale(3.7766666666667)"><circle cx="3" cy="3" r="3"></circle></g>
<g transform="translate(638,616) scale(3.7766666666667)"><circle cx="3" cy="3" r="3"></circle></g>
<g transform="translate(748,616) scale(3.7766666666667)"><circle cx="3" cy="3" r="3"></circle></g>
<g transform="translate(770,616) scale(3.7766666666667)"><circle cx="3" cy="3" r="3"></circle></g>
<g transform="translate(836,616) scale(3.7766666666667)"><circle cx="3" cy="3" r="3"></circle></g>
<g transform="translate(44,638) scale(3.7766666666667)"><circle cx="3" cy="3" r="3"></circle></g>
<g transform="translate(66,638) scale(3.7766666666667)"><circle cx="3" cy="3" r="3"></circle></g>
<g transform="translate(88,638) scale(3.7766666666667)"><circle cx="3" cy="3" r="3"></circle></g>
<g transform="translate(132,638) scale(3.7766666666667)"><circle cx="3" cy="3" r="3"></circle></g>
<g transform="translate(154,638) scale(3.7766666666667)"><circle cx="3" cy="3" r="3"></circle></g>
<g transform="translate(198,638) scale(3.7766666666667)"><circle cx="3" cy="3" r="3"></circle></g>
<g transform="translate(242,638) scale(3.7766666666667)"><circle cx="3" cy="3" r="3"></circle></g>
<g transform="translate(264,638) scale(3.7766666666667)"><circle cx="3" cy="3" r="3"></circle></g>
<g transform="translate(286,638) scale(3.7766666666667)"><circle cx="3" cy="3" r="3"></circle></g>
<g transform="translate(308,638) scale(3.7766666666667)"><circle cx="3" cy="3" r="3"></circle></g>
<g transform="translate(396,638) scale(3.7766666666667)"><circle cx="3" cy="3" r="3"></circle></g>
<g transform="translate(418,638) scale(3.7766666666667)"><circle cx="3" cy="3" r="3"></circle></g>
<g transform="translate(484,638) scale(3.7766666666667)"><circle cx="3" cy="3" r="3"></circle></g>
<g transform="translate(506,638) scale(3.7766666666667)"><circle cx="3" cy="3" r="3"></circle></g>
<g transform="translate(528,638) scale(3.7766666666667)"><circle cx="3" cy="3" r="3"></circle></g>
<g transform="translate(550,638) scale(3.7766666666667)"><circle cx="3" cy="3" r="3"></circle></g>
<g transform="translate(616,638) scale(3.7766666666667)"><circle cx="3" cy="3" r="3"></circle></g>
<g transform="translate(638,638) scale(3.7766666666667)"><circle cx="3" cy="3" r="3"></circle></g>
<g transform="translate(704,638) scale(3.7766666666667)"><circle cx="3" cy="3" r="3"></circle></g>
<g transform="translate(726,638) scale(3.7766666666667)"><circle cx="3" cy="3" r="3"></circle></g>
<g transform="translate(748,638) scale(3.7766666666667)"><circle cx="3" cy="3" r="3"></circle></g>
<g transform="translate(836,638) scale(3.7766666666667)"><circle cx="3" cy="3" r="3"></circle></g>
<g transform="translate(858,638) scale(3.7766666666667)"><circle cx="3" cy="3" r="3"></circle></g>
<g transform="translate(902,638) scale(3.7766666666667)"><circle cx="3" cy="3" r="3"></circle></g>
<g transform="translate(88,660) scale(3.7766666666667)"><circle cx="3" cy="3" r="3"></circle></g>
<g transform="translate(154,660) scale(3.7766666666667)"><circle cx="3" cy="3" r="3"></circle></g>
<g transform="translate(176,660) scale(3.7766666666667)"><circle cx="3" cy="3" r="3"></circle></g>
<g transform="translate(264,660) scale(3.7766666666667)"><circle cx="3" cy="3" r="3"></circle></g>
<g transform="translate(308,660) scale(3.7766666666667)"><circle cx="3" cy="3" r="3"></circle></g>
<g transform="translate(330,660) scale(3.7766666666667)"><circle cx="3" cy="3" r="3"></circle></g>
<g transform="translate(374,660) scale(3.7766666666667)"><circle cx="3" cy="3" r="3"></circle></g>
<g transform="translate(440,660) scale(3.7766666666667)"><circle cx="3" cy="3" r="3"></circle></g>
<g transform="translate(462,660) scale(3.7766666666667)"><circle cx="3" cy="3" r="3"></circle></g>
<g transform="translate(484,660) scale(3.7766666666667)"><circle cx="3" cy="3" r="3"></circle></g>
<g transform="translate(506,660) scale(3.7766666666667)"><circle cx="3" cy="3" r="3"></circle></g>
<g transform="translate(572,660) scale(3.7766666666667)"><circle cx="3" cy="3" r="3"></circle></g>
<g transform="translate(594,660) scale(3.7766666666667)"><circle cx="3" cy="3" r="3"></circle></g>
<g transform="translate(616,660) scale(3.7766666666667)"><circle cx="3" cy="3" r="3"></circle></g>
<g transform="translate(682,660) scale(3.7766666666667)"><circle cx="3" cy="3" r="3"></circle></g>
<g transform="translate(726,660) scale(3.7766666666667)"><circle cx="3" cy="3" r="3"></circle></g>
<g transform="translate(858,660) scale(3.7766666666667)"><circle cx="3" cy="3" r="3"></circle></g>
<g transform="translate(880,660) scale(3.7766666666667)"><circle cx="3" cy="3" r="3"></circle></g>
<g transform="translate(44,682) scale(3.7766666666667)"><circle cx="3" cy="3" r="3"></circle></g>
<g transform="translate(88,682) scale(3.7766666666667)"><circle cx="3" cy="3" r="3"></circle></g>
<g transform="translate(154,682) scale(3.7766666666667)"><circle cx="3" cy="3" r="3"></circle></g>
<g transform="translate(198,682) scale(3.7766666666667)"><circle cx="3" cy="3" r="3"></circle></g>
<g transform="translate(242,682) scale(3.7766666666667)"><circle cx="3" cy="3" r="3"></circle></g>
<g transform="translate(264,682) scale(3.7766666666667)"><circle cx="3" cy="3" r="3"></circle></g>
<g transform="translate(330,682) scale(3.7766666666667)"><circle cx="3" cy="3" r="3"></circle></g>
<g transform="translate(374,682) scale(3.7766666666667)"><circle cx="3" cy="3" r="3"></circle></g>
<g transform="translate(396,682) scale(3.7766666666667)"><circle cx="3" cy="3" r="3"></circle></g>
<g transform="translate(418,682) scale(3.7766666666667)"><circle cx="3" cy="3" r="3"></circle></g>
<g transform="translate(440,682) scale(3.7766666666667)"><circle cx="3" cy="3" r="3"></circle></g>
<g transform="translate(462,682) scale(3.7766666666667)"><circle cx="3" cy="3" r="3"></circle></g>
<g transform="translate(550,682) scale(3.7766666666667)"><circle cx="3" cy="3" r="3"></circle></g>
<g transform="translate(616,682) scale(3.7766666666667)"><circle cx="3" cy="3" r="3"></circle></g>
<g transform="translate(638,682) scale(3.7766666666667)"><circle cx="3" cy="3" r="3"></circle></g>
<g transform="translate(660,682) scale(3.7766666666667)"><circle cx="3" cy="3" r="3"></circle></g>
<g transform="translate(726,682) scale(3.7766666666667)"><circle cx="3" cy="3" r="3"></circle></g>
<g transform="translate(748,682) scale(3.7766666666667)"><circle cx="3" cy="3" r="3"></circle></g>
<g transform="translate(792,682) scale(3.7766666666667)"><circle cx="3" cy="3" r="3"></circle></g>
<g transform="translate(836,682) scale(3.7766666666667)"><circle cx="3" cy="3" r="3"></circle></g>
<g transform="translate(858,682) scale(3.7766666666667)"><circle cx="3" cy="3" r="3"></circle></g>
<g transform="translate(880,682) scale(3.7766666666667)"><circle cx="3" cy="3" r="3"></circle></g>
<g transform="translate(924,682) scale(3.7766666666667)"><circle cx="3" cy="3" r="3"></circle></g>
<g transform="translate(44,704) scale(3.7766666666667)"><circle cx="3" cy="3" r="3"></circle></g>
<g transform="translate(110,704) scale(3.7766666666667)"><circle cx="3" cy="3" r="3"></circle></g>
<g transform="translate(132,704) scale(3.7766666666667)"><circle cx="3" cy="3" r="3"></circle></g>
<g transform="translate(154,704) scale(3.7766666666667)"><circle cx="3" cy="3" r="3"></circle></g>
<g transform="translate(176,704) scale(3.7766666666667)"><circle cx="3" cy="3" r="3"></circle></g>
<g transform="translate(242,704) scale(3.7766666666667)"><circle cx="3" cy="3" r="3"></circle></g>
<g transform="translate(286,704) scale(3.7766666666667)"><circle cx="3" cy="3" r="3"></circle></g>
<g transform="translate(308,704) scale(3.7766666666667)"><circle cx="3" cy="3" r="3"></circle></g>
<g transform="translate(330,704) scale(3.7766666666667)"><circle cx="3" cy="3" r="3"></circle></g>
<g transform="translate(352,704) scale(3.7766666666667)"><circle cx="3" cy="3" r="3"></circle></g>
<g transform="translate(374,704) scale(3.7766666666667)"><circle cx="3" cy="3" r="3"></circle></g>
<g transform="translate(440,704) scale(3.7766666666667)"><circle cx="3" cy="3" r="3"></circle></g>
<g transform="translate(550,704) scale(3.7766666666667)"><circle cx="3" cy="3" r="3"></circle></g>
<g transform="translate(616,704) scale(3.7766666666667)"><circle cx="3" cy="3" r="3"></circle></g>
<g transform="translate(682,704) scale(3.7766666666667)"><circle cx="3" cy="3" r="3"></circle></g>
<g transform="translate(704,704) scale(3.7766666666667)"><circle cx="3" cy="3" r="3"></circle></g>
<g transform="translate(770,704) scale(3.7766666666667)"><circle cx="3" cy="3" r="3"></circle></g>
<g transform="translate(792,704) scale(3.7766666666667)"><circle cx="3" cy="3" r="3"></circle></g>
<g transform="translate(814,704) scale(3.7766666666667)"><circle cx="3" cy="3" r="3"></circle></g>
<g transform="translate(836,704) scale(3.7766666666667)"><circle cx="3" cy="3" r="3"></circle></g>
<g transform="translate(858,704) scale(3.7766666666667)"><circle cx="3" cy="3" r="3"></circle></g>
<g transform="translate(880,704) scale(3.7766666666667)"><circle cx="3" cy="3" r="3"></circle></g>
<g transform="translate(44,726) scale(3.7766666666667)"><circle cx="3" cy="3" r="3"></circle></g>
<g transform="translate(110,726) scale(3.7766666666667)"><circle cx="3" cy="3" r="3"></circle></g>
<g transform="translate(154,726) scale(3.7766666666667)"><circle cx="3" cy="3" r="3"></circle></g>
<g transform="translate(308,726) scale(3.7766666666667)"><circle cx="3" cy="3" r="3"></circle></g>
<g transform="translate(374,726) scale(3.7766666666667)"><circle cx="3" cy="3" r="3"></circle></g>
<g transform="translate(396,726) scale(3.7766666666667)"><circle cx="3" cy="3" r="3"></circle></g>
<g transform="translate(462,726) scale(3.7766666666667)"><circle cx="3" cy="3" r="3"></circle></g>
<g transform="translate(484,726) scale(3.7766666666667)"><circle cx="3" cy="3" r="3"></circle></g>
<g transform="translate(528,726) scale(3.7766666666667)"><circle cx="3" cy="3" r="3"></circle></g>
<g transform="translate(594,726) scale(3.7766666666667)"><circle cx="3" cy="3" r="3"></circle></g>
<g transform="translate(660,726) scale(3.7766666666667)"><circle cx="3" cy="3" r="3"></circle></g>
<g transform="translate(704,726) scale(3.7766666666667)"><circle cx="3" cy="3" r="3"></circle></g>
<g transform="translate(770,726) scale(3.7766666666667)"><circle cx="3" cy="3" r="3"></circle></g>
<g transform="translate(792,726) scale(3.7766666666667)"><circle cx="3" cy="3" r="3"></circle></g>
<g transform="translate(814,726) scale(3.7766666666667)"><circle cx="3" cy="3" r="3"></circle></g>
<g transform="translate(858,726) scale(3.7766666666667)"><circle cx="3" cy="3" r="3"></circle></g>
<g transform="translate(902,726) scale(3.7766666666667)"><circle cx="3" cy="3" r="3"></circle></g>
<g transform="translate(924,726) scale(3.7766666666667)"><circle cx="3" cy="3" r="3"></circle></g>
<g transform="translate(44,748) scale(3.7766666666667)"><circle cx="3" cy="3" r="3"></circle></g>
<g transform="translate(88,748) scale(3.7766666666667)"><circle cx="3" cy="3" r="3"></circle></g>
<g transform="translate(132,748) scale(3.7766666666667)"><circle cx="3" cy="3" r="3"></circle></g>
<g transform="translate(176,748) scale(3.7766666666667)"><circle cx="3" cy="3" r="3"></circle></g>
<g transform="translate(220,748) scale(3.7766666666667)"><circle cx="3" cy="3" r="3"></circle></g>
<g transform="translate(242,748) scale(3.7766666666667)"><circle cx="3" cy="3" r="3"></circle></g>
<g transform="translate(264,748) scale(3.7766666666667)"><circle cx="3" cy="3" r="3"></circle></g>
<g transform="translate(286,748) scale(3.7766666666667)"><circle cx="3" cy="3" r="3"></circle></g>
<g transform="translate(418,748) scale(3.7766666666667)"><circle cx="3" cy="3" r="3"></circle></g>
<g transform="translate(462,748) scale(3.7766666666667)"><circle cx="3" cy="3" r="3"></circle></g>
<g transform="translate(484,748) scale(3.7766666666667)"><circle cx="3" cy="3" r="3"></circle></g>
<g transform="translate(550,748) scale(3.7766666666667)"><circle cx="3" cy="3" r="3"></circle></g>
<g transform="translate(572,748) scale(3.7766666666667)"><circle cx="3" cy="3" r="3"></circle></g>
<g transform="translate(682,748) scale(3.7766666666667)"><circle cx="3" cy="3" r="3"></circle></g>
<g transform="translate(748,748) scale(3.7766666666667)"><circle cx="3" cy="3" r="3"></circle></g>
<g transform="translate(770,748) scale(3.7766666666667)"><circle cx="3" cy="3" r="3"></circle></g>
<g transform="translate(792,748) scale(3.7766666666667)"><circle cx="3" cy="3" r="3"></circle></g>
<g transform="translate(814,748) scale(3.7766666666667)"><circle cx="3" cy="3" r="3"></circle></g>
<g transform="translate(836,748) scale(3.7766666666667)"><circle cx="3" cy="3" r="3"></circle></g>
<g transform="translate(880,748) scale(3.7766666666667)"><circle cx="3" cy="3" r="3"></circle></g>
<g transform="translate(902,748) scale(3.7766666666667)"><circle cx="3" cy="3" r="3"></circle></g>
<g transform="translate(924,748) scale(3.7766666666667)"><circle cx="3" cy="3" r="3"></circle></g>
<g transform="translate(220,770) scale(3.7766666666667)"><circle cx="3" cy="3" r="3"></circle></g>
<g transform="translate(308,770) scale(3.7766666666667)"><circle cx="3" cy="3" r="3"></circle></g>
<g transform="translate(330,770) scale(3.7766666666667)"><circle cx="3" cy="3" r="3"></circle></g>
<g transform="translate(352,770) scale(3.7766666666667)"><circle cx="3" cy="3" r="3"></circle></g>
<g transform="translate(374,770) scale(3.7766666666667)"><circle cx="3" cy="3" r="3"></circle></g>
<g transform="translate(396,770) scale(3.7766666666667)"><circle cx="3" cy="3" r="3"></circle></g>
<g transform="translate(418,770) scale(3.7766666666667)"><circle cx="3" cy="3" r="3"></circle></g>
<g transform="translate(484,770) scale(3.7766666666667)"><circle cx="3" cy="3" r="3"></circle></g>
<g transform="translate(528,770) scale(3.7766666666667)"><circle cx="3" cy="3" r="3"></circle></g>
<g transform="translate(572,770) scale(3.7766666666667)"><circle cx="3" cy="3" r="3"></circle></g>
<g transform="translate(594,770) scale(3.7766666666667)"><circle cx="3" cy="3" r="3"></circle></g>
<g transform="translate(616,770) scale(3.7766666666667)"><circle cx="3" cy="3" r="3"></circle></g>
<g transform="translate(660,770) scale(3.7766666666667)"><circle cx="3" cy="3" r="3"></circle></g>
<g transform="translate(704,770) scale(3.7766666666667)"><circle cx="3" cy="3" r="3"></circle></g>
<g transform="translate(748,770) scale(3.7766666666667)"><circle cx="3" cy="3" r="3"></circle></g>
<g transform="translate(836,770) scale(3.7766666666667)"><circle cx="3" cy="3" r="3"></circle></g>
<g transform="translate(902,770) scale(3.7766666666667)"><circle cx="3" cy="3" r="3"></circle></g>
<g transform="translate(924,770) scale(3.7766666666667)"><circle cx="3" cy="3" r="3"></circle></g>
<g transform="translate(242,792) scale(3.7766666666667)"><circle cx="3" cy="3" r="3"></circle></g>
<g transform="translate(286,792) scale(3.7766666666667)"><circle cx="3" cy="3" r="3"></circle></g>
<g transform="translate(308,792) scale(3.7766666666667)"><circle cx="3" cy="3" r="3"></circle></g>
<g transform="translate(418,792) scale(3.7766666666667)"><circle cx="3" cy="3" r="3"></circle></g>
<g transform="translate(440,792) scale(3.7766666666667)"><circle cx="3" cy="3" r="3"></circle></g>
<g transform="translate(484,792) scale(3.7766666666667)"><circle cx="3" cy="3" r="3"></circle></g>
<g transform="translate(550,792) scale(3.7766666666667)"><circle cx="3" cy="3" r="3"></circle></g>
<g transform="translate(572,792) scale(3.7766666666667)"><circle cx="3" cy="3" r="3"></circle></g>
<g transform="translate(594,792) scale(3.7766666666667)"><circle cx="3" cy="3" r="3"></circle></g>
<g transform="translate(638,792) scale(3.7766666666667)"><circle cx="3" cy="3" r="3"></circle></g>
<g transform="translate(704,792) scale(3.7766666666667)"><circle cx="3" cy="3" r="3"></circle></g>
<g transform="translate(726,792) scale(3.7766666666667)"><circle cx="3" cy="3" r="3"></circle></g>
<g transform="translate(748,792) scale(3.7766666666667)"><circle cx="3" cy="3" r="3"></circle></g>
<g transform="translate(792,792) scale(3.7766666666667)"><circle cx="3" cy="3" r="3"></circle></g>
<g transform="translate(836,792) scale(3.7766666666667)"><circle cx="3" cy="3" r="3"></circle></g>
<g transform="translate(858,792) scale(3.7766666666667)"><circle cx="3" cy="3" r="3"></circle></g>
<g transform="translate(902,792) scale(3.7766666666667)"><circle cx="3" cy="3" r="3"></circle></g>
<g transform="translate(264,814) scale(3.7766666666667)"><circle cx="3" cy="3" r="3"></circle></g>
<g transform="translate(308,814) scale(3.7766666666667)"><circle cx="3" cy="3" r="3"></circle></g>
<g transform="translate(330,814) scale(3.7766666666667)"><circle cx="3" cy="3" r="3"></circle></g>
<g transform="translate(374,814) scale(3.7766666666667)"><circle cx="3" cy="3" r="3"></circle></g>
<g transform="translate(396,814) scale(3.7766666666667)"><circle cx="3" cy="3" r="3"></circle></g>
<g transform="translate(418,814) scale(3.7766666666667)"><circle cx="3" cy="3" r="3"></circle></g>
<g transform="translate(484,814) scale(3.7766666666667)"><circle cx="3" cy="3" r="3"></circle></g>
<g transform="translate(550,814) scale(3.7766666666667)"><circle cx="3" cy="3" r="3"></circle></g>
<g transform="translate(616,814) scale(3.7766666666667)"><circle cx="3" cy="3" r="3"></circle></g>
<g transform="translate(726,814) scale(3.7766666666667)"><circle cx="3" cy="3" r="3"></circle></g>
<g transform="translate(748,814) scale(3.7766666666667)"><circle cx="3" cy="3" r="3"></circle></g>
<g transform="translate(836,814) scale(3.7766666666667)"><circle cx="3" cy="3" r="3"></circle></g>
<g transform="translate(858,814) scale(3.7766666666667)"><circle cx="3" cy="3" r="3"></circle></g>
<g transform="translate(902,814) scale(3.7766666666667)"><circle cx="3" cy="3" r="3"></circle></g>
<g transform="translate(924,814) scale(3.7766666666667)"><circle cx="3" cy="3" r="3"></circle></g>
<g transform="translate(220,836) scale(3.7766666666667)"><circle cx="3" cy="3" r="3"></circle></g>
<g transform="translate(242,836) scale(3.7766666666667)"><circle cx="3" cy="3" r="3"></circle></g>
<g transform="translate(264,836) scale(3.7766666666667)"><circle cx="3" cy="3" r="3"></circle></g>
<g transform="translate(374,836) scale(3.7766666666667)"><circle cx="3" cy="3" r="3"></circle></g>
<g transform="translate(440,836) scale(3.7766666666667)"><circle cx="3" cy="3" r="3"></circle></g>
<g transform="translate(462,836) scale(3.7766666666667)"><circle cx="3" cy="3" r="3"></circle></g>
<g transform="translate(484,836) scale(3.7766666666667)"><circle cx="3" cy="3" r="3"></circle></g>
<g transform="translate(506,836) scale(3.7766666666667)"><circle cx="3" cy="3" r="3"></circle></g>
<g transform="translate(528,836) scale(3.7766666666667)"><circle cx="3" cy="3" r="3"></circle></g>
<g transform="translate(616,836) scale(3.7766666666667)"><circle cx="3" cy="3" r="3"></circle></g>
<g transform="translate(638,836) scale(3.7766666666667)"><circle cx="3" cy="3" r="3"></circle></g>
<g transform="translate(704,836) scale(3.7766666666667)"><circle cx="3" cy="3" r="3"></circle></g>
<g transform="translate(748,836) scale(3.7766666666667)"><circle cx="3" cy="3" r="3"></circle></g>
<g transform="translate(770,836) scale(3.7766666666667)"><circle cx="3" cy="3" r="3"></circle></g>
<g transform="translate(792,836) scale(3.7766666666667)"><circle cx="3" cy="3" r="3"></circle></g>
<g transform="translate(814,836) scale(3.7766666666667)"><circle cx="3" cy="3" r="3"></circle></g>
<g transform="translate(836,836) scale(3.7766666666667)"><circle cx="3" cy="3" r="3"></circle></g>
<g transform="translate(858,836) scale(3.7766666666667)"><circle cx="3" cy="3" r="3"></circle></g>
<g transform="translate(880,836) scale(3.7766666666667)"><circle cx="3" cy="3" r="3"></circle></g>
<g transform="translate(902,836) scale(3.7766666666667)"><circle cx="3" cy="3" r="3"></circle></g>
<g transform="translate(220,858) scale(3.7766666666667)"><circle cx="3" cy="3" r="3"></circle></g>
<g transform="translate(242,858) scale(3.7766666666667)"><circle cx="3" cy="3" r="3"></circle></g>
<g transform="translate(286,858) scale(3.7766666666667)"><circle cx="3" cy="3" r="3"></circle></g>
<g transform="translate(352,858) scale(3.7766666666667)"><circle cx="3" cy="3" r="3"></circle></g>
<g transform="translate(374,858) scale(3.7766666666667)"><circle cx="3" cy="3" r="3"></circle></g>
<g transform="translate(396,858) scale(3.7766666666667)"><circle cx="3" cy="3" r="3"></circle></g>
<g transform="translate(418,858) scale(3.7766666666667)"><circle cx="3" cy="3" r="3"></circle></g>
<g transform="translate(506,858) scale(3.7766666666667)"><circle cx="3" cy="3" r="3"></circle></g>
<g transform="translate(660,858) scale(3.7766666666667)"><circle cx="3" cy="3" r="3"></circle></g>
<g transform="translate(770,858) scale(3.7766666666667)"><circle cx="3" cy="3" r="3"></circle></g>
<g transform="translate(814,858) scale(3.7766666666667)"><circle cx="3" cy="3" r="3"></circle></g>
<g transform="translate(858,858) scale(3.7766666666667)"><circle cx="3" cy="3" r="3"></circle></g>
<g transform="translate(880,858) scale(3.7766666666667)"><circle cx="3" cy="3" r="3"></circle></g>
<g transform="translate(924,858) scale(3.7766666666667)"><circle cx="3" cy="3" r="3"></circle></g>
<g transform="translate(220,880) scale(3.7766666666667)"><circle cx="3" cy="3" r="3"></circle></g>
<g transform="translate(242,880) scale(3.7766666666667)"><circle cx="3" cy="3" r="3"></circle></g>
<g transform="translate(264,880) scale(3.7766666666667)"><circle cx="3" cy="3" r="3"></circle></g>
<g transform="translate(286,880) scale(3.7766666666667)"><circle cx="3" cy="3" r="3"></circle></g>
<g transform="translate(330,880) scale(3.7766666666667)"><circle cx="3" cy="3" r="3"></circle></g>
<g transform="translate(374,880) scale(3.7766666666667)"><circle cx="3" cy="3" r="3"></circle></g>
<g transform="translate(396,880) scale(3.7766666666667)"><circle cx="3" cy="3" r="3"></circle></g>
<g transform="translate(440,880) scale(3.7766666666667)"><circle cx="3" cy="3" r="3"></circle></g>
<g transform="translate(462,880) scale(3.7766666666667)"><circle cx="3" cy="3" r="3"></circle></g>
<g transform="translate(484,880) scale(3.7766666666667)"><circle cx="3" cy="3" r="3"></circle></g>
<g transform="translate(594,880) scale(3.7766666666667)"><circle cx="3" cy="3" r="3"></circle></g>
<g transform="translate(638,880) scale(3.7766666666667)"><circle cx="3" cy="3" r="3"></circle></g>
<g transform="translate(770,880) scale(3.7766666666667)"><circle cx="3" cy="3" r="3"></circle></g>
<g transform="translate(792,880) scale(3.7766666666667)"><circle cx="3" cy="3" r="3"></circle></g>
<g transform="translate(814,880) scale(3.7766666666667)"><circle cx="3" cy="3" r="3"></circle></g>
<g transform="translate(836,880) scale(3.7766666666667)"><circle cx="3" cy="3" r="3"></circle></g>
<g transform="translate(902,880) scale(3.7766666666667)"><circle cx="3" cy="3" r="3"></circle></g>
<g transform="translate(242,902) scale(3.7766666666667)"><circle cx="3" cy="3" r="3"></circle></g>
<g transform="translate(264,902) scale(3.7766666666667)"><circle cx="3" cy="3" r="3"></circle></g>
<g transform="translate(330,902) scale(3.7766666666667)"><circle cx="3" cy="3" r="3"></circle></g>
<g transform="translate(374,902) scale(3.7766666666667)"><circle cx="3" cy="3" r="3"></circle></g>
<g transform="translate(396,902) scale(3.7766666666667)"><circle cx="3" cy="3" r="3"></circle></g>
<g transform="translate(506,902) scale(3.7766666666667)"><circle cx="3" cy="3" r="3"></circle></g>
<g transform="translate(528,902) scale(3.7766666666667)"><circle cx="3" cy="3" r="3"></circle></g>
<g transform="translate(572,902) scale(3.7766666666667)"><circle cx="3" cy="3" r="3"></circle></g>
<g transform="translate(616,902) scale(3.7766666666667)"><circle cx="3" cy="3" r="3"></circle></g>
<g transform="translate(638,902) scale(3.7766666666667)"><circle cx="3" cy="3" r="3"></circle></g>
<g transform="translate(704,902) scale(3.7766666666667)"><circle cx="3" cy="3" r="3"></circle></g>
<g transform="translate(726,902) scale(3.7766666666667)"><circle cx="3" cy="3" r="3"></circle></g>
<g transform="translate(748,902) scale(3.7766666666667)"><circle cx="3" cy="3" r="3"></circle></g>
<g transform="translate(770,902) scale(3.7766666666667)"><circle cx="3" cy="3" r="3"></circle></g>
<g transform="translate(792,902) scale(3.7766666666667)"><circle cx="3" cy="3" r="3"></circle></g>
<g transform="translate(836,902) scale(3.7766666666667)"><circle cx="3" cy="3" r="3"></circle></g>
<g transform="translate(858,902) scale(3.7766666666667)"><circle cx="3" cy="3" r="3"></circle></g>
<g transform="translate(902,902) scale(3.7766666666667)"><circle cx="3" cy="3" r="3"></circle></g>
<g transform="translate(264,924) scale(3.7766666666667)"><circle cx="3" cy="3" r="3"></circle></g>
<g transform="translate(286,924) scale(3.7766666666667)"><circle cx="3" cy="3" r="3"></circle></g>
<g transform="translate(330,924) scale(3.7766666666667)"><circle cx="3" cy="3" r="3"></circle></g>
<g transform="translate(352,924) scale(3.7766666666667)"><circle cx="3" cy="3" r="3"></circle></g>
<g transform="translate(396,924) scale(3.7766666666667)"><circle cx="3" cy="3" r="3"></circle></g>
<g transform="translate(550,924) scale(3.7766666666667)"><circle cx="3" cy="3" r="3"></circle></g>
<g transform="translate(594,924) scale(3.7766666666667)"><circle cx="3" cy="3" r="3"></circle></g>
<g transform="translate(616,924) scale(3.7766666666667)"><circle cx="3" cy="3" r="3"></circle></g>
<g transform="translate(638,924) scale(3.7766666666667)"><circle cx="3" cy="3" r="3"></circle></g>
<g transform="translate(682,924) scale(3.7766666666667)"><circle cx="3" cy="3" r="3"></circle></g>
<g transform="translate(726,924) scale(3.7766666666667)"><circle cx="3" cy="3" r="3"></circle></g>
<g transform="translate(814,924) scale(3.7766666666667)"><circle cx="3" cy="3" r="3"></circle></g>
<g transform="translate(836,924) scale(3.7766666666667)"><circle cx="3" cy="3" r="3"></circle></g>
<g transform="translate(858,924) scale(3.7766666666667)"><circle cx="3" cy="3" r="3"></circle></g>
<g transform="translate(880,924) scale(3.7766666666667)"><circle cx="3" cy="3" r="3"></circle></g>
</g><g><g transform="translate(44,44)" fill="#000000"><g transform="scale(11)"><path d="M0,0l0,14h14V0H0z M7,12L7,12c-2.8,0-5-2.2-5-5v0c0-2.8,2.2-5,5-5h0c2.8,0,5,2.2,5,5v0C12,9.8,9.8,12,7,12z"></path></g></g>
<g transform="translate(792,44)" fill="#000000"><g transform="scale(11)"><path d="M0,0l0,14h14V0H0z M7,12L7,12c-2.8,0-5-2.2-5-5v0c0-2.8,2.2-5,5-5h0c2.8,0,5,2.2,5,5v0C12,9.8,9.8,12,7,12z"></path></g></g>
<g transform="translate(44,792)" fill="#000000"><g transform="scale(11)"><path d="M0,0l0,14h14V0H0z M7,12L7,12c-2.8,0-5-2.2-5-5v0c0-2.8,2.2-5,5-5h0c2.8,0,5,2.2,5,5v0C12,9.8,9.8,12,7,12z"></path></g></g>
<g transform="translate(88,88)" fill="#000000"><g transform="scale(11)"><circle cx="3" cy="3" r="3"></circle></g></g>
<g transform="translate(836,88)" fill="#000000"><g transform="scale(11)"><circle cx="3" cy="3" r="3"></circle></g></g>
<g transform="translate(88,836)" fill="#000000"><g transform="scale(11)"><circle cx="3" cy="3" r="3"></circle></g></g></g>
</svg>